<svg width="381" height="408" viewBox="0 0 381 408" fill="none" xmlns="http://www.w3.org/2000/svg">
<path d="M32.7071 239.105L24.8199 242.089C24.8199 242.089 21.077 243.514 17.233 241.611C13.389 239.707 20.7895 244.461 13.389 239.707C5.98844 234.953 9.18961 237.322 5.98844 234.953C2.78727 232.584 2.78723 232.584 2.78723 232.584L1.27589 228.042C1.27589 228.042 0.189676 225.344 0.0948812 218.841C4.67413e-05 212.338 0 212.338 0 212.338C0 212.338 0.468064 214.931 0.655537 206.901C0.843011 198.87 0.843006 198.87 0.843006 198.87L3.05008 188.308L5.10047 176.038L7.26215 170.228C7.26215 170.228 7.31385 168.071 10.1082 159.46C12.9025 150.848 12.9025 150.848 12.9025 150.848L17.1539 140.728L20.5917 131.672L27.549 121.955L30.1922 114.445C30.1922 114.445 30.2248 115.078 37.9517 104.546C45.6786 94.014 45.6786 94.014 45.6786 94.014L52.5217 86.8428L58.9018 78.2107L69.4184 68.479L78.8546 62.1507L91.0733 50.5165L99.8799 46.4522L115.72 37.6189L130.986 31.4864L145.553 26.3964L155.822 24.4616L170.704 23.7784L191.885 23.0108L208.598 22.7401L223.85 24.2752L256.717 31.4865L260.977 35.3311L305.871 0L305.471 61.7389C305.471 61.7389 313.247 66.8191 319.474 73.2599C325.7 79.7006 322.897 76.1233 325.7 79.7006C328.504 83.278 321.18 77.5779 328.504 83.278C335.828 88.9781 335.828 88.9781 335.828 88.9781C335.828 88.9781 333.314 88.6285 339.256 95.636C345.198 102.644 337.669 93.485 344.483 103.212C351.297 112.94 351.297 112.94 351.297 112.94C351.297 112.94 353.283 116.642 356.876 122.526C360.469 128.411 360.469 128.411 360.469 128.411L363.846 136.914L368.472 145.295L373.409 158.075C373.409 158.075 375.958 168.304 377.114 173.865C378.269 179.426 378.269 179.426 378.269 179.426V186.62L380.01 201.771L379.693 216.206L380.925 228.56L379.282 240.516L378.879 252.046L379.153 264.053L375.449 270.068L298.43 189.387L298.521 17.0122L263.517 43.5585L264.078 152.748C264.078 152.748 199.171 83.6605 195.993 81.987C192.816 80.3135 192.816 80.3135 192.816 80.3135L187.922 80.5054L32.7071 239.105Z" fill="#FF0000"/>
<path d="M20.6421 297.534C183.132 131.506 178.458 135.988 183.132 131.506C187.807 127.024 185.086 129.381 187.807 127.024C190.528 124.666 188.436 124.578 190.528 124.666C192.62 124.754 186.924 119.576 192.619 124.754C198.315 129.933 198.315 129.933 198.315 129.933L351.381 285.861C351.381 285.861 356.303 291.485 356.033 300.338C355.764 309.191 355.764 309.191 355.764 309.191C355.764 309.191 358.179 313.904 345.652 329.771C333.125 345.638 339.502 338.21 333.125 345.638C326.748 353.067 326.748 353.067 326.748 353.067C326.748 353.067 325.859 355.116 306.367 369.112C286.874 383.109 286.874 383.109 286.874 383.109L264.162 393.878L233.557 403.641L201.245 406.26L172.067 407.603L136.339 400.084L124.609 396.119L109.482 389.347L92.8044 382.234L78.1575 371.158L58.8336 355.811L44.054 339.336L31.4313 321.488C31.4313 321.488 23.4603 308.985 20.6421 297.534V297.534Z" fill="#006FB9"/>
<path d="M126.987 204.96C126.218 346.558 126.218 346.558 126.218 346.558L158.473 346.366C158.473 346.366 158.03 276.794 158.916 279.133C159.801 281.472 158.146 280.813 159.801 281.472C161.456 282.13 161.456 282.13 161.456 282.13L205.354 310.875L205.375 370.785L237.306 353.097L237.413 295.657L160.057 246.032L157.888 205.019L126.987 204.96Z" fill="#FFFFFA"/>
<path d="M261.447 204.369L278.9 228.596C278.9 228.596 243.222 229.166 239.306 229.566C235.39 229.966 235.39 229.966 235.39 229.966L235.581 274.205C235.581 274.205 203.649 253.683 203.85 254.618C204.051 255.552 202.764 255.913 204.051 255.552C205.339 255.191 202.671 255.666 202.671 255.666L205.388 233.695C205.388 233.695 182.013 230.802 182.297 230.557C182.582 230.313 182.582 230.313 182.582 230.313C182.582 230.313 180.226 200.344 181.074 201.401C181.922 202.459 181.922 202.459 181.922 202.459L261.447 204.369Z" fill="#FFFFFA"/>
</svg>
